<svg width="43" height="43" viewBox="0 0 43 43" fill="none" xmlns="http://www.w3.org/2000/svg">
<g id="ph:plus-fill">
<path id="Vector" d="M34.3248 5.34833H8.21986C7.52752 5.34833 6.86353 5.63007 6.37397 6.13157C5.88441 6.63307 5.60938 7.31326 5.60938 8.02249V34.7641C5.60938 35.4733 5.88441 36.1535 6.37397 36.655C6.86353 37.1565 7.52752 37.4383 8.21986 37.4383H34.3248C35.0171 37.4383 35.6811 37.1565 36.1707 36.655C36.6602 36.1535 36.9352 35.4733 36.9352 34.7641V8.02249C36.9352 7.31326 36.6602 6.63307 36.1707 6.13157C35.6811 5.63007 35.0171 5.34833 34.3248 5.34833ZM30.409 22.7304H22.5776V30.7528C22.5776 31.1075 22.44 31.4476 22.1953 31.6983C21.9505 31.9491 21.6185 32.0899 21.2723 32.0899C20.9261 32.0899 20.5941 31.9491 20.3494 31.6983C20.1046 31.4476 19.9671 31.1075 19.9671 30.7528V22.7304H12.1356C11.7894 22.7304 11.4574 22.5895 11.2127 22.3387C10.9679 22.088 10.8304 21.7479 10.8304 21.3933C10.8304 21.0387 10.9679 20.6986 11.2127 20.4478C11.4574 20.1971 11.7894 20.0562 12.1356 20.0562H19.9671V12.0337C19.9671 11.6791 20.1046 11.339 20.3494 11.0883C20.5941 10.8375 20.9261 10.6966 21.2723 10.6966C21.6185 10.6966 21.9505 10.8375 22.1953 11.0883C22.44 11.339 22.5776 11.6791 22.5776 12.0337V20.0562H30.409C30.7552 20.0562 31.0872 20.1971 31.332 20.4478C31.5768 20.6986 31.7143 21.0387 31.7143 21.3933C31.7143 21.7479 31.5768 22.088 31.332 22.3387C31.0872 22.5895 30.7552 22.7304 30.409 22.7304Z" fill="black"/>
</g>
</svg>
