<svg width="96" height="55" viewBox="0 0 96 55" fill="none" xmlns="http://www.w3.org/2000/svg">
<path id="Vector" d="M70.0917 41.1164C69.3005 41.1164 68.5272 40.8783 67.8694 40.4322C67.2116 39.9861 66.6989 39.352 66.3962 38.6101C66.0934 37.8683 66.0142 37.0519 66.1685 36.2644C66.3229 35.4768 66.7038 34.7534 67.2632 34.1856C67.8227 33.6178 68.5354 33.2311 69.3113 33.0744C70.0872 32.9178 70.8915 32.9982 71.6224 33.3055C72.3533 33.6128 72.978 34.1331 73.4175 34.8008C73.8571 35.4685 74.0917 36.2534 74.0917 37.0564C74.0917 38.1332 73.6702 39.1659 72.9201 39.9273C72.17 40.6887 71.1525 41.1164 70.0917 41.1164ZM25.9083 41.1164C25.1172 41.1164 24.3439 40.8783 23.6861 40.4322C23.0283 39.9861 22.5156 39.352 22.2128 38.6101C21.9101 37.8683 21.8309 37.0519 21.9852 36.2644C22.1395 35.4768 22.5205 34.7534 23.0799 34.1856C23.6393 33.6178 24.352 33.2311 25.128 33.0744C25.9039 32.9178 26.7082 32.9982 27.4391 33.3055C28.17 33.6128 28.7947 34.1331 29.2342 34.8008C29.6737 35.4685 29.9083 36.2534 29.9083 37.0564C29.9083 38.1332 29.4869 39.1659 28.7368 39.9273C27.9866 40.6887 26.9692 41.1164 25.9083 41.1164ZM71.525 16.6751L79.515 2.63426C79.6421 2.44197 79.729 2.22523 79.7702 1.99747C79.8115 1.76972 79.8062 1.53579 79.7548 1.31019C79.7033 1.08458 79.6068 0.872097 79.4711 0.685898C79.3355 0.4997 79.1636 0.343752 78.9662 0.227713C78.7688 0.111673 78.5499 0.038014 78.3233 0.0112968C78.0967 -0.0154204 77.8671 0.00537341 77.6487 0.0723908C77.4303 0.139408 77.2278 0.251221 77.0537 0.400906C76.8796 0.55059 76.7377 0.734957 76.6367 0.942588L68.5467 15.1645C62.0845 12.2227 55.0823 10.7019 48 10.7019C40.9177 10.7019 33.9155 12.2227 27.4533 15.1645L19.3633 0.942588C19.2623 0.734957 19.1204 0.55059 18.9463 0.400906C18.7722 0.251221 18.5697 0.139408 18.3513 0.0723908C18.1329 0.00537341 17.9033 -0.0154204 17.6767 0.0112968C17.4501 0.038014 17.2313 0.111673 17.0338 0.227713C16.8364 0.343752 16.6645 0.4997 16.5289 0.685898C16.3932 0.872097 16.2967 1.08458 16.2452 1.31019C16.1938 1.53579 16.1885 1.76972 16.2298 1.99747C16.271 2.22523 16.3579 2.44197 16.485 2.63426L24.475 16.6751C10.755 24.2488 1.37333 38.3455 0 55H96C94.6267 38.3455 85.2433 24.2488 71.525 16.6751Z" fill="#A4C639"/>
</svg>
