<svg width="16" height="10" viewBox="0 0 16 10" fill="none" xmlns="http://www.w3.org/2000/svg">
<path d="M14 0H2C1.46957 0 0.960859 0.191558 0.585786 0.532533C0.210714 0.873508 0 1.33597 0 1.81818C0 2.30039 0.210714 2.76286 0.585786 3.10383C0.960859 3.44481 1.46957 3.63636 2 3.63636H14C14.5304 3.63636 15.0391 3.44481 15.4142 3.10383C15.7893 2.76286 16 2.30039 16 1.81818C16 1.33597 15.7893 0.873508 15.4142 0.532533C15.0391 0.191558 14.5304 0 14 0ZM14 6.36364H2C1.46957 6.36364 0.960859 6.55519 0.585786 6.89617C0.210714 7.23715 0 7.69961 0 8.18182C0 8.66403 0.210714 9.12649 0.585786 9.46747C0.960859 9.80844 1.46957 10 2 10H14C14.5304 10 15.0391 9.80844 15.4142 9.46747C15.7893 9.12649 16 8.66403 16 8.18182C16 7.69961 15.7893 7.23715 15.4142 6.89617C15.0391 6.55519 14.5304 6.36364 14 6.36364Z" fill="white"/>
</svg>
