<svg width="19" height="13" viewBox="0 0 19 13" fill="none" xmlns="http://www.w3.org/2000/svg">
<path d="M16.1398 0.169922H2.42623C1.82005 0.169922 1.2387 0.410726 0.810063 0.839359C0.381429 1.26799 0.140625 1.84935 0.140625 2.45553C0.140625 3.0617 0.381429 3.64306 0.810063 4.07169C1.2387 4.50032 1.82005 4.74113 2.42623 4.74113H16.1398C16.746 4.74113 17.3274 4.50032 17.756 4.07169C18.1846 3.64306 18.4255 3.0617 18.4255 2.45553C18.4255 1.84935 18.1846 1.26799 17.756 0.839359C17.3274 0.410726 16.746 0.169922 16.1398 0.169922ZM16.1398 8.16953H2.42623C1.82005 8.16953 1.2387 8.41034 0.810063 8.83897C0.381429 9.2676 0.140625 9.84896 0.140625 10.4551C0.140625 11.0613 0.381429 11.6427 0.810063 12.0713C1.2387 12.4999 1.82005 12.7407 2.42623 12.7407H16.1398C16.746 12.7407 17.3274 12.4999 17.756 12.0713C18.1846 11.6427 18.4255 11.0613 18.4255 10.4551C18.4255 9.84896 18.1846 9.2676 17.756 8.83897C17.3274 8.41034 16.746 8.16953 16.1398 8.16953Z" fill="black"/>
</svg>
