<svg width="26" height="16" viewBox="0 0 26 16" fill="none" xmlns="http://www.w3.org/2000/svg">
<g id="bi:filter" clip-path="url(#clip0_1719_7175)">
<path id="Vector" d="M8.65369 14.2968C8.65369 14.0198 8.76266 13.7542 8.95664 13.5583C9.15062 13.3624 9.41371 13.2524 9.68804 13.2524H15.8941C16.1684 13.2524 16.4315 13.3624 16.6255 13.5583C16.8195 13.7542 16.9285 14.0198 16.9285 14.2968C16.9285 14.5739 16.8195 14.8395 16.6255 15.0354C16.4315 15.2313 16.1684 15.3413 15.8941 15.3413H9.68804C9.41371 15.3413 9.15062 15.2313 8.95664 15.0354C8.76266 14.8395 8.65369 14.5739 8.65369 14.2968ZM4.5163 8.02999C4.5163 7.75298 4.62527 7.48731 4.81925 7.29143C5.01323 7.09556 5.27632 6.98551 5.55064 6.98551H20.0315C20.3058 6.98551 20.5689 7.09556 20.7629 7.29143C20.9569 7.48731 21.0659 7.75298 21.0659 8.02999C21.0659 8.307 20.9569 8.57267 20.7629 8.76855C20.5689 8.96442 20.3058 9.07447 20.0315 9.07447H5.55064C5.27632 9.07447 5.01323 8.96442 4.81925 8.76855C4.62527 8.57267 4.5163 8.307 4.5163 8.02999ZM0.378906 1.76313C0.378906 1.48612 0.487882 1.22046 0.68186 1.02458C0.875838 0.828701 1.13893 0.718658 1.41325 0.718658H24.1689C24.4432 0.718658 24.7063 0.828701 24.9003 1.02458C25.0943 1.22046 25.2033 1.48612 25.2033 1.76313C25.2033 2.04015 25.0943 2.30581 24.9003 2.50169C24.7063 2.69757 24.4432 2.80761 24.1689 2.80761H1.41325C1.13893 2.80761 0.875838 2.69757 0.68186 2.50169C0.487882 2.30581 0.378906 2.04015 0.378906 1.76313Z" fill="white"/>
</g>
<defs>
<clipPath id="clip0_1719_7175">
<rect width="25.4017" height="14.7684" fill="white" transform="translate(0.378906 0.439453)"/>
</clipPath>
</defs>
</svg>
