<svg width="36" height="34" viewBox="0 0 36 34" fill="none" xmlns="http://www.w3.org/2000/svg">
<path d="M12.0489 27.3797C12.0489 27.5203 11.882 27.6328 11.6715 27.6328C11.432 27.6539 11.2651 27.5414 11.2651 27.3797C11.2651 27.2391 11.432 27.1266 11.6425 27.1266C11.8602 27.1055 12.0489 27.218 12.0489 27.3797ZM9.79168 27.0633C9.74088 27.2039 9.88604 27.3656 10.1038 27.4078C10.2925 27.4781 10.5102 27.4078 10.5538 27.2672C10.5973 27.1266 10.4594 26.9648 10.2417 26.9016C10.053 26.8523 9.84249 26.9227 9.79168 27.0633ZM12.9997 26.9438C12.7893 26.993 12.6441 27.1266 12.6659 27.2883C12.6877 27.4289 12.8764 27.5203 13.0941 27.4711C13.3046 27.4219 13.4497 27.2883 13.428 27.1477C13.4062 27.0141 13.2102 26.9227 12.9997 26.9438ZM17.7756 0C7.70862 0 0.0078125 7.40391 0.0078125 17.1562C0.0078125 24.9539 5.07394 31.6266 12.3102 33.975C13.2393 34.1367 13.5659 33.5812 13.5659 33.1242C13.5659 32.6883 13.5441 30.2836 13.5441 28.807C13.5441 28.807 8.46346 29.8617 7.39652 26.7117C7.39652 26.7117 6.5691 24.6656 5.37878 24.1383C5.37878 24.1383 3.71668 23.0344 5.49491 23.0555C5.49491 23.0555 7.30217 23.1961 8.29652 24.8695C9.88604 27.5836 12.5497 26.8031 13.5877 26.3391C13.7546 25.2141 14.2264 24.4336 14.7489 23.9695C10.6917 23.5336 6.59813 22.9641 6.59813 16.2C6.59813 14.2664 7.14975 13.2961 8.31104 12.0586C8.12233 11.6016 7.50539 9.71719 8.49975 7.28437C10.0167 6.82734 13.5078 9.18281 13.5078 9.18281C14.9594 8.78906 16.5199 8.58516 18.0659 8.58516C19.6118 8.58516 21.1723 8.78906 22.6239 9.18281C22.6239 9.18281 26.1151 6.82031 27.632 7.28437C28.6264 9.72422 28.0094 11.6016 27.8207 12.0586C28.982 13.3031 29.6933 14.2734 29.6933 16.2C29.6933 22.9852 25.4183 23.5266 21.361 23.9695C22.0288 24.525 22.5949 25.5797 22.5949 27.232C22.5949 29.6016 22.5731 32.5336 22.5731 33.1102C22.5731 33.5672 22.907 34.1227 23.8288 33.9609C31.0868 31.6266 36.0078 24.9539 36.0078 17.1562C36.0078 7.40391 27.8425 0 17.7756 0ZM7.06265 24.2508C6.9683 24.3211 6.99007 24.4828 7.11346 24.6164C7.22959 24.7289 7.39652 24.7781 7.49088 24.6867C7.58523 24.6164 7.56346 24.4547 7.44007 24.3211C7.32394 24.2086 7.15701 24.1594 7.06265 24.2508ZM6.27878 23.6812C6.22797 23.7727 6.30055 23.8852 6.44572 23.9555C6.56184 24.0258 6.70701 24.0047 6.75781 23.9062C6.80862 23.8148 6.73604 23.7023 6.59088 23.632C6.44572 23.5898 6.32959 23.6109 6.27878 23.6812ZM8.63039 26.1844C8.51426 26.2758 8.55781 26.4867 8.72475 26.6203C8.89168 26.782 9.10217 26.8031 9.19652 26.6906C9.29088 26.5992 9.24733 26.3883 9.10217 26.2547C8.94249 26.093 8.72475 26.0719 8.63039 26.1844ZM7.80297 25.1508C7.68684 25.2211 7.68684 25.4039 7.80297 25.5656C7.9191 25.7273 8.11507 25.7977 8.20942 25.7273C8.32555 25.6359 8.32555 25.4531 8.20942 25.2914C8.10781 25.1297 7.9191 25.0594 7.80297 25.1508Z" fill="black"/>
</svg>
