<svg width="16" height="15" viewBox="0 0 16 15" fill="none" xmlns="http://www.w3.org/2000/svg">
<g id="Group 2271">
<path id="Vector" d="M2.711 3.52146C1.79661 3.3239 1.07752 2.7632 0.689862 1.94104C0.524146 1.58951 0.456084 1.28737 0.453125 0.903884C0.453125 0.517494 0.488635 0.415813 0.69578 0.215355C1.00354 -0.0751634 1.51844 -0.0664478 1.8262 0.238597C1.96528 0.378046 2.03038 0.534926 2.06293 0.819634C2.11028 1.22926 2.25232 1.50526 2.52457 1.71734C2.99213 2.08339 3.66978 2.04853 4.10183 1.63599C4.31489 1.43263 4.43326 1.17988 4.46877 0.851591C4.50428 0.537831 4.58122 0.357709 4.74102 0.21245C4.91857 0.0526648 5.09612 -0.00834413 5.34174 0.00908698C5.58143 0.0265181 5.74419 0.0991477 5.88919 0.258933C6.06378 0.450675 6.10225 0.590124 6.08154 0.985229C6.03123 1.97009 5.43643 2.84164 4.50724 3.28614C4.11662 3.47497 3.80591 3.55051 3.33835 3.56503C3.05131 3.57375 2.91223 3.56503 2.711 3.52146Z" fill="black"/>
<path id="Vector_2" d="M12.6387 3.55642C13.5264 3.45473 14.3284 2.92599 14.7811 2.1474C15.0356 1.70872 15.1984 0.996947 15.1214 0.642514C15.0652 0.369427 14.8669 0.139917 14.6036 0.0411409C14.355 -0.0547302 13.9703 0.0295202 13.7661 0.224168C13.6152 0.366522 13.559 0.503065 13.5087 0.842972C13.485 1.01438 13.4377 1.21193 13.4021 1.27875C13.0796 1.93532 12.2688 2.16774 11.6621 1.78425C11.3366 1.57798 11.1472 1.25841 11.1088 0.863308C11.0703 0.447867 10.9134 0.195116 10.6175 0.0701928C10.0819 -0.156412 9.5167 0.189305 9.47527 0.767437C9.46048 0.985326 9.52854 1.40658 9.62027 1.67386C9.97242 2.69648 10.9075 3.4344 11.9995 3.55642C12.2954 3.58837 12.3546 3.58837 12.6387 3.55642Z" fill="black"/>
<path id="Vector_3" d="M0.797539 14.6023C0.238249 14.4949 -0.119815 13.9313 0.0370226 13.4083C0.105084 13.1788 0.474985 12.467 0.714681 12.1097C1.75632 10.5554 3.38685 9.40497 5.28074 8.89656C6.70708 8.51308 8.26954 8.49565 9.69884 8.85299C11.9626 9.41659 13.8713 10.907 14.8834 12.9057C15.126 13.388 15.1734 13.5739 15.1201 13.8325C14.9662 14.5704 14.0666 14.858 13.5103 14.3496C13.4008 14.2479 13.3179 14.1201 13.1581 13.8092C12.6817 12.8912 12.0899 12.2114 11.2524 11.6303C10.9121 11.3921 10.2611 11.0551 9.84976 10.907C7.92923 10.2068 5.63584 10.4625 3.97573 11.5635C3.60879 11.8047 3.43123 11.9499 3.09388 12.2753C2.60857 12.743 2.32153 13.1439 1.93683 13.8993C1.73561 14.2915 1.63499 14.4106 1.40122 14.5268C1.32428 14.5646 0.992847 14.6401 0.945499 14.6314C0.936622 14.6285 0.86856 14.6169 0.797539 14.6023Z" fill="black"/>
</g>
</svg>
