<svg width="18" height="17" viewBox="0 0 18 17" fill="none" xmlns="http://www.w3.org/2000/svg">
<path d="M16.6213 7.48189L13.1913 10.4753L14.2188 14.932C14.2732 15.165 14.2576 15.4088 14.1742 15.633C14.0907 15.8572 13.943 16.0519 13.7496 16.1926C13.5561 16.3333 13.3254 16.4139 13.0864 16.4242C12.8474 16.4346 12.6106 16.3742 12.4057 16.2507L8.51866 13.8931L4.63998 16.2507C4.43507 16.3742 4.19831 16.4346 3.95929 16.4242C3.72027 16.4139 3.4896 16.3333 3.29613 16.1926C3.10265 16.0519 2.95495 15.8572 2.87149 15.633C2.78803 15.4088 2.77252 15.165 2.82689 14.932L3.85284 10.4799L0.422108 7.48189C0.240654 7.32539 0.109443 7.11881 0.0449304 6.88803C-0.0195821 6.65726 -0.0145246 6.41258 0.0594686 6.18467C0.133462 5.95676 0.273097 5.75577 0.460863 5.60691C0.64863 5.45804 0.876169 5.36792 1.11495 5.34786L5.63703 4.95619L7.40221 0.745923C7.49439 0.525003 7.64987 0.336295 7.84908 0.203561C8.04829 0.0708262 8.28232 0 8.5217 0C8.76108 0 8.99511 0.0708262 9.19432 0.203561C9.39353 0.336295 9.54901 0.525003 9.64119 0.745923L11.4117 4.95619L15.9323 5.34786C16.171 5.36792 16.3986 5.45804 16.5863 5.60691C16.7741 5.75577 16.9137 5.95676 16.9877 6.18467C17.0617 6.41258 17.0668 6.65726 17.0023 6.88803C16.9378 7.11881 16.8065 7.32539 16.6251 7.48189H16.6213Z" fill="#222222"/>
</svg>
