<svg width="18" height="17" viewBox="0 0 18 17" fill="none" xmlns="http://www.w3.org/2000/svg">
<path d="M16.758 7.94088L13.328 10.9343L14.3555 15.391C14.4099 15.624 14.3944 15.8678 14.3109 16.092C14.2274 16.3162 14.0797 16.5109 13.8863 16.6516C13.6928 16.7923 13.4621 16.8729 13.2231 16.8832C12.9841 16.8936 12.7473 16.8332 12.5424 16.7097L8.65538 14.3521L4.7767 16.7097C4.57179 16.8332 4.33503 16.8936 4.09601 16.8832C3.85699 16.8729 3.62632 16.7923 3.43285 16.6516C3.23937 16.5109 3.09167 16.3162 3.00821 16.092C2.92475 15.8678 2.90924 15.624 2.96361 15.391L3.98955 10.9389L0.558827 7.94088C0.377372 7.78438 0.246162 7.57779 0.181649 7.34702C0.117137 7.11625 0.122194 6.87156 0.196187 6.64366C0.270181 6.41575 0.409816 6.21476 0.597582 6.06589C0.785348 5.91702 1.01289 5.82691 1.25167 5.80684L5.77375 5.41517L7.53893 1.20491C7.6311 0.983987 7.78659 0.795279 7.9858 0.662545C8.18501 0.529811 8.41904 0.458984 8.65842 0.458984C8.8978 0.458984 9.13183 0.529811 9.33104 0.662545C9.53025 0.795279 9.68573 0.983987 9.77791 1.20491L11.5484 5.41517L16.069 5.80684C16.3078 5.82691 16.5353 5.91702 16.7231 6.06589C16.9108 6.21476 17.0505 6.41575 17.1245 6.64366C17.1984 6.87156 17.2035 7.11625 17.139 7.34702C17.0745 7.57779 16.9433 7.78438 16.7618 7.94088H16.758Z" fill="white"/>
</svg>
