<svg width="36" height="30" viewBox="0 0 36 30" fill="none" xmlns="http://www.w3.org/2000/svg">
<path d="M32.3073 7.28677C32.3301 7.60655 32.3301 7.9264 32.3301 8.24618C32.3301 17.9999 24.9063 29.2385 11.3378 29.2385C7.15754 29.2385 3.27432 28.0278 0.0078125 25.9264C0.601742 25.9949 1.17275 26.0177 1.78953 26.0177C5.23871 26.0177 8.41388 24.8528 10.9494 22.8655C7.70577 22.7969 4.98748 20.6726 4.05092 17.7487C4.50781 17.8172 4.96463 17.8629 5.44438 17.8629C6.10679 17.8629 6.76927 17.7715 7.38598 17.6117C4.00529 16.9263 1.46968 13.9568 1.46968 10.3705V10.2792C2.45187 10.8274 3.5941 11.1701 4.80467 11.2157C2.81736 9.89079 1.51538 7.6294 1.51538 5.07101C1.51538 3.70048 1.8808 2.44413 2.52043 1.34768C6.15242 5.82483 11.6118 8.74863 17.7336 9.06848C17.6194 8.52026 17.5509 7.94925 17.5509 7.37817C17.5509 3.31214 20.8402 0 24.929 0C27.0534 0 28.9721 0.890859 30.3199 2.32995C31.9873 2.01016 33.5863 1.39338 35.0026 0.548227C34.4543 2.26146 33.2894 3.70055 31.759 4.61419C33.2438 4.45437 34.6828 4.04311 36.0077 3.4721C35.0028 4.93397 33.7463 6.23595 32.3073 7.28677Z" fill="black"/>
</svg>
