<svg width="34" height="32" viewBox="0 0 34 32" fill="none" xmlns="http://www.w3.org/2000/svg">
<path id="Vector" d="M17 32C21.5087 32 25.8327 30.3143 29.0208 27.3137C32.2089 24.3131 34 20.2435 34 16C34 11.7565 32.2089 7.68687 29.0208 4.68629C25.8327 1.68571 21.5087 0 17 0C12.4913 0 8.1673 1.68571 4.97919 4.68629C1.79107 7.68687 0 11.7565 0 16C0 20.2435 1.79107 24.3131 4.97919 27.3137C8.1673 30.3143 12.4913 32 17 32ZM8.97149 13.5875L16.0836 7.34375C16.3359 7.125 16.6613 7 17 7C17.3387 7 17.6707 7.125 17.9164 7.34375L25.0285 13.5875C25.3273 13.85 25.5 14.2188 25.5 14.6062C25.5 15.375 24.8359 16 24.0191 16H20.1875V22C20.1875 23.1062 19.2379 24 18.0625 24H15.9375C14.7621 24 13.8125 23.1062 13.8125 22V16H9.98086C9.16406 16 8.5 15.375 8.5 14.6062C8.5 14.2188 8.67266 13.85 8.97149 13.5875Z" fill="#FF0007"/>
</svg>
