<svg width="22" height="22" viewBox="0 0 22 22" fill="none" xmlns="http://www.w3.org/2000/svg">
<path id="Vector" d="M15.8339 13.4457L15.6306 13.7285L15.8742 13.9774L20.9943 19.2108L20.9944 19.2109C21.3419 19.5657 21.341 20.1446 20.9925 20.4985C20.6481 20.8481 20.0925 20.8473 19.7492 20.4967C19.7491 20.4967 19.7491 20.4966 19.749 20.4966L14.629 15.2634L14.3759 15.0047L14.0855 15.2207C12.7596 16.2066 11.1277 16.7838 9.36103 16.7812C4.94299 16.7746 1.35594 13.1221 1.36265 8.60489C1.36936 4.08767 4.96724 0.445797 9.38528 0.452359C13.8033 0.458921 17.3904 4.11147 17.3837 8.62868C17.381 10.4325 16.8037 12.0964 15.8339 13.4457ZM9.36372 14.9705C10.1852 14.9717 10.9986 14.8081 11.7576 14.4893C12.5165 14.1706 13.2059 13.7029 13.7865 13.1134C14.3671 12.524 14.8276 11.8242 15.1421 11.0544C15.4566 10.2845 15.619 9.45941 15.6203 8.62606C15.6215 7.79272 15.4616 6.96712 15.1494 6.19635C14.8371 5.42556 14.3787 4.72447 13.7998 4.13328C13.221 3.54208 12.533 3.07237 11.775 2.75133C11.017 2.43029 10.204 2.26432 9.38259 2.2631C8.56116 2.26188 7.7477 2.42544 6.98874 2.74422C6.2298 3.06301 5.54043 3.53067 4.9598 4.12015C4.37919 4.70962 3.91867 5.40935 3.60418 6.1792C3.28969 6.94904 3.12727 7.77416 3.12604 8.60751C3.1248 9.44085 3.28476 10.2664 3.59696 11.0372C3.90917 11.808 4.36761 12.5091 4.94647 13.1003C5.52534 13.6915 6.21331 14.1612 6.97131 14.4822C7.72932 14.8033 8.54228 14.9692 9.36372 14.9705Z" fill="#6C6C6C"/>
</svg>
