<svg width="36" height="35" viewBox="0 0 36 35" fill="none" xmlns="http://www.w3.org/2000/svg">
<path d="M18.004 8.52644C12.8962 8.52644 8.77613 12.5329 8.77613 17.5C8.77613 22.4671 12.8962 26.4736 18.004 26.4736C23.1119 26.4736 27.2319 22.4671 27.2319 17.5C27.2319 12.5329 23.1119 8.52644 18.004 8.52644ZM18.004 23.334C14.7032 23.334 12.0047 20.7177 12.0047 17.5C12.0047 14.2823 14.6951 11.666 18.004 11.666C21.3129 11.666 24.0033 14.2823 24.0033 17.5C24.0033 20.7177 21.3049 23.334 18.004 23.334ZM29.7617 8.15938C29.7617 9.32305 28.798 10.2524 27.6094 10.2524C26.4127 10.2524 25.457 9.31524 25.457 8.15938C25.457 7.00351 26.4207 6.06633 27.6094 6.06633C28.798 6.06633 29.7617 7.00351 29.7617 8.15938ZM35.8735 10.2837C35.737 7.47992 35.0784 4.99637 32.9662 2.95018C30.862 0.903994 28.3081 0.263584 25.4249 0.123006C22.4533 -0.0410019 13.5467 -0.0410019 10.5751 0.123006C7.69994 0.255774 5.14601 0.896184 3.0338 2.94237C0.921584 4.98856 0.271054 7.47211 0.126492 10.2759C-0.042164 13.1655 -0.042164 21.8267 0.126492 24.7163C0.263023 27.5201 0.921584 30.0036 3.0338 32.0498C5.14601 34.096 7.69191 34.7364 10.5751 34.877C13.5467 35.041 22.4533 35.041 25.4249 34.877C28.3081 34.7442 30.862 34.1038 32.9662 32.0498C35.0704 30.0036 35.7289 27.5201 35.8735 24.7163C36.0422 21.8267 36.0422 13.1733 35.8735 10.2837ZM32.0346 27.8169C31.4081 29.3476 30.1954 30.5269 28.6133 31.1439C26.2441 32.0576 20.6222 31.8468 18.004 31.8468C15.3858 31.8468 9.75594 32.0498 7.39476 31.1439C5.82064 30.5347 4.60792 29.3554 3.97345 27.8169C3.0338 25.5129 3.25064 20.046 3.25064 17.5C3.25064 14.954 3.04183 9.47925 3.97345 7.18314C4.59989 5.6524 5.8126 4.47311 7.39476 3.85613C9.76397 2.94237 15.3858 3.15324 18.004 3.15324C20.6222 3.15324 26.2521 2.95018 28.6133 3.85613C30.1874 4.4653 31.4001 5.64459 32.0346 7.18314C32.9742 9.48706 32.7574 14.954 32.7574 17.5C32.7574 20.046 32.9742 25.5208 32.0346 27.8169Z" fill="black"/>
</svg>
